<?xml version="1.0" standalone="no"?>
<!DOCTYPE svg PUBLIC "-//W3C//DTD SVG 20010904//EN"
 "http://www.w3.org/TR/2001/REC-SVG-20010904/DTD/svg10.dtd">
<svg version="1.0" xmlns="http://www.w3.org/2000/svg"
 width="512.000000pt" height="512.000000pt" viewBox="0 0 512.000000 512.000000"
 preserveAspectRatio="xMidYMid meet">

<g transform="translate(0.000000,512.000000) scale(0.100000,-0.100000)"
fill="#000000" stroke="none">
<path d="M2345 3904 c-115 -17 -172 -29 -255 -56 -373 -119 -682 -432 -798
-808 -26 -85 -34 -120 -26 -120 4 0 67 63 141 139 136 142 176 171 232 171 41
0 104 -32 125 -64 22 -35 31 -106 17 -147 -11 -33 -104 -134 -404 -436 l-130
-132 12 -58 c19 -89 58 -211 73 -228 5 -6 130 114 326 314 l317 324 57 5 c72
6 121 -21 149 -82 45 -99 27 -132 -204 -366 -106 -107 -257 -261 -336 -342
l-145 -147 96 -97 96 -98 210 215 c115 118 270 275 343 351 109 110 142 138
175 147 72 19 144 -14 175 -82 23 -51 24 -83 4 -130 -8 -21 -116 -139 -267
-293 -139 -142 -277 -283 -305 -312 -29 -30 -53 -58 -53 -62 0 -9 194 -74 250
-84 35 -6 36 -5 299 264 215 220 270 272 301 280 69 19 145 -12 175 -70 18
-35 19 -126 2 -158 -7 -12 -75 -85 -152 -162 -76 -77 -136 -143 -133 -146 11
-10 205 59 294 105 281 147 506 410 607 712 49 144 61 230 61 409 -1 172 -4
196 -45 345 -71 256 -241 501 -458 663 -139 104 -337 190 -506 222 -65 12
-272 21 -320 14z"/>
</g>
</svg>
