<?xml version="1.0" standalone="yes"?>
<svg xmlns="http://www.w3.org/2000/svg" width="512" height="512">
<path style="fill:#010101; stroke:none;" d="M0 0L0 512L512 512L512 0L0 0z"/>
<path style="fill:#efefef; stroke:none;" d="M242 13.4244C180.863 21.4556 112.328 1.30591 61 45.3001C36.1135 66.6309 19.3424 97.2153 16.1698 130C14.3956 148.333 16 167.578 16 186L16 291C16 324.638 12.2481 360.839 18.0841 394C23.0474 422.202 39.4409 448.221 61 466.7C98.0813 498.483 142.373 496 188 496L318 496C339.228 496 361.936 498.301 383 495.714C396.605 494.043 409.463 490.335 422 484.846C462.855 466.959 490.342 426.74 495.714 383C498.221 362.581 496 340.578 496 320L496 215C496 166.932 502.667 116.704 476.186 74C471.097 65.793 464.807 58.7963 458 52C415.477 9.54227 359.08 16 304 16C293.453 16 282.5 16.8463 272 15.8302C262.042 14.8665 252.054 12.1036 242 13.4244z"/>
<path style="fill:#fbfbfb; stroke:none;" d="M121 17L122 18L121 17M390 17L391 18L390 17M96 24L97 25L96 24M415 24L416 25L415 24M420 26L421 27L420 26M89 27L90 28L89 27M85 29L86 30L85 29M83 30L84 31L83 30M81 31L82 32L81 31M430 31L431 32L430 31M435 34L436 35L435 34M67 40L68 41L67 40M444 40L445 41L444 40M55 50L56 51L55 50M456 50L457 51L456 50M54 51L55 52L54 51M457 51L458 52L457 51M53 52L54 53L53 52M458 52L459 53L458 52M52 53L53 54L52 53M459 53L460 54L459 53M51 54L52 55L51 54M460 54L461 55L460 54M50 55L51 56L50 55M40 67L41 68L40 67M471 67L472 68L471 67M34 76L35 77L34 76M477 76L478 77L477 76M31 81L32 82L31 81M480 81L481 82L480 81M30 83L31 84L30 83M481 83L482 84L481 83M27 89L28 90L27 89M484 89L485 90L484 89M485 91L486 92L485 91M24 96L25 97L24 96M487 96L488 97L487 96M17 121L18 122L17 121z"/>
<path style="fill:#2b2b2b; stroke:none;" d="M126 220C136.679 214.625 144.009 201.978 153 194.188C164.593 184.144 184.029 194.157 177.852 210C175.653 215.639 170.179 219.662 166.17 223.985C157.329 233.521 148.197 242.803 139 252C134.836 256.164 127.507 261.234 125.643 267C123.188 274.593 129.92 289.084 133 296C146.244 289.824 156.768 273.249 167 263C176.063 253.922 187.91 236.507 200 231.894C213.118 226.887 223.673 242.798 217.583 254C213.608 261.309 205.825 267.175 200 273C189.488 283.512 179.496 294.5 169 305C163.871 310.131 154.827 316.33 151.832 323C149.33 328.57 161.199 337.773 164.999 340.833C172.166 346.603 180.939 332.238 185.576 327.576C196.655 316.435 207.982 305.437 218.715 293.975C224.801 287.476 231.724 277.588 240 273.974C249.943 269.632 262.276 279.148 260.58 290C259.47 297.107 252.466 302.962 247.831 307.985C241.776 314.548 235.146 320.639 228.91 327.039C219.161 337.047 202.188 348.885 197 362C204.45 364.424 217.108 371.372 225 369.227C231.608 367.43 238.077 357.957 242.424 353.004C252.229 341.831 267.402 321.62 281 315.657C295.687 309.215 306.282 328.736 297.606 340C289.921 349.977 276.379 357.558 271 369C286.177 366.42 301.473 359.189 314 350.41C390.433 296.851 383.306 175.906 299 133.753C287.047 127.776 273.353 123.322 260 122.075C242.009 120.395 225.285 121.8 208 127.344C188.516 133.593 172.36 144.572 158.001 159C141.575 175.505 130.429 197.174 126 220z"/>
<path style="fill:#fbfbfb; stroke:none;" d="M494 121L495 122L494 121z"/>
<path style="fill:#7fa893; stroke:none;" d="M226.667 122.333L227.333 122.667L226.667 122.333M263.667 122.333L264.333 122.667L263.667 122.333M214 125L215 126L214 125M276.667 125.333L277.333 125.667L276.667 125.333M207 127L208 128L207 127M283 127L284 128L283 127M296 132L297 133L296 132M298 133L299 134L298 133M183 138L184 139L183 138M307 138L308 139L307 138M177 142L178 143L177 142M313 142L314 143L313 142M174 144L175 145L174 144M316 144L317 145L316 144M162 154L163 155L162 154M328 154L329 155L328 154M161 155L162 156L161 155M329 155L330 156L329 155M160 156L161 157L160 156M330 156L331 157L330 156M159 157L160 158L159 157M331 157L332 158L331 157M158 158L159 159L158 158M332 158L333 159L332 158M157 159L158 160L157 159M333 159L334 160L333 159M150 167L151 168L150 167M340 167L341 168L340 167M147 171L148 172L147 171M343 171L344 172L343 171M146 172L147 173L146 172M344 172L345 173L344 172M144 175L145 176L144 175M346 175L347 176L346 175M141 180L142 181L141 180M349 180L350 181L349 180M139 183L140 184L139 183M351 183L352 184L351 183M138 185L139 186L138 185M157 190L158 191L157 190M173 192L174 193L173 192M175 194L176 195L175 194M133 196L134 197L133 196M357 196L358 197L357 196M132 197L133 198L132 197M177 197L178 198L177 197M358 197L359 198L358 197M147 199L148 200L147 199M131 200L132 201L131 200M146 200L147 201L146 200M359 200L360 201L359 200M145 201L146 202L145 201M130 203L131 204L130 203M143 203L144 204L143 203M360 203L361 204L360 203M139 207L140 208L139 207M138 208L139 209L138 208M178 208L179 209L178 208M362 210L363 211L362 210M176 213L177 214L176 213M132 214L133 215L132 214M126.333 216.667L126.667 217.333L126.333 216.667M130 216L131 217L130 216M364 217L365 218L364 217M125 219L126 220L125 219M126 220L127 221L126 220M365.333 220.667L365.667 221.333L365.333 220.667M163 227L164 228L163 227M162 228L163 229L162 228M209 231L210 232L209 231M157 233L158 234L157 233M156 234L157 235L156 234M214 234L215 235L214 234M155 235L156 236L155 235M154 236L155 237L154 236M153 237L154 238L153 237M367 237L368 238L367 237M152 238L153 239L152 238M149 241L150 242L149 241M148 242L149 243L148 242M177 252L178 253L177 252M367 256L368 257L367 256M169 260L170 261L169 260M168 261L169 262L168 261M167 262L168 263L167 262M161 268L162 269L161 268M160 269L161 270L160 269M159 270L160 271L159 270M125.333 271.667L125.667 272.333L125.333 271.667M365 271L365 274L366 274L365 271M126 275L127 276L126 275M236 275L237 276L236 275M254 275L255 276L254 275M364 275L365 276L364 275M152 277L153 278L152 277M230 281L231 282L230 281M128 282L129 283L128 282M229 282L230 283L229 282M226 285L227 286L226 285M225 286L226 287L225 286M130 289L131 290L130 289M222 289L223 290L222 289M360 289L361 290L360 289M221 290L222 291L221 290M220 291L221 292L220 291M260 291L261 292L260 291M131 292L132 293L131 292M359 292L360 293L359 292M358 295L359 296L358 295M357 296L358 297L357 296M176 297L177 298L176 297M213 298L214 299L213 298M212 299L213 300L212 299M173 300L174 301L173 300M172 301L173 302L172 301M171 302L172 303L171 302M249 306L250 307L249 306M166 307L167 308L166 307M248 307L249 308L248 307M247 308L248 309L247 308M246 309L247 310L246 309M351 309L352 310L351 309M245 310L246 311L245 310M159 314L160 315L159 314M284 314L285 315L284 314M158 315L159 316L158 315M240 315L241 316L240 315M292 315L293 316L292 315M347 315L348 316L347 315M239 316L240 317L239 316M278 316L279 317L278 316M295 317L296 318L295 317M235 320L236 321L235 320M298 320L299 321L298 320M344 320L345 321L344 320M233 322L234 323L233 322M189 323L190 324L189 323M188 324L189 325L188 324M231 324L232 325L231 324M150 325L151 326L150 325M187 325L188 326L187 325M340 325L341 326L340 325M186 326L187 327L186 326M184 328L185 329L184 328M182 330L183 331L182 330M181 331L182 332L181 331M180 332L181 333L180 332M157 333L158 334L157 333M179 333L180 334L179 333M333 333L334 334L333 333M158 334L159 335L158 334M332 334L333 335L332 334M259 335L260 336L259 335M331 335L332 336L331 335M257 337L258 338L257 337M329 337L330 338L329 337M256 338L257 339L256 338M173 339L174 340L173 339M255 339L256 340L255 339M298 339L299 340L298 339M172 340L173 341L172 340M251 343L252 344L251 343M250 344L251 345L250 344M316 348L317 349L316 348M245 349L246 350L245 349M206 350L207 351L206 350M244 350L245 351L244 350M313 350L314 351L313 350M205 351L206 352L205 351M243 351L244 352L243 351M242 352L243 353L242 352M203 353L204 354L203 353M202 354L203 355L202 354M307 354L308 355L307 354M201 355L202 356L201 355M198 358L199 359L198 358M197 359L198 360L197 359M278 360L279 361L278 360M277 361L278 362L277 361M207 365L208 366L207 365M283 365L284 366L283 365M214 367L215 368L214 367M276 367L277 368L276 367M222 369L223 370L222 369z"/>
<path style="fill:#fbfbfb; stroke:none;" d="M17 390L18 391L17 390M494 390L495 391L494 390M24 415L25 416L24 415M487 415L488 416L487 415M27 422L28 423L27 422M484 422L485 423L484 422M30 428L31 429L30 428M481 428L482 429L481 428M31 430L32 431L31 430M480 430L481 431L480 430M34 435L35 436L34 435M477 435L478 436L477 435M40 444L41 445L40 444M471 444L472 445L471 444M51 457L52 458L51 457M460 457L461 458L460 457M52 458L53 459L52 458M459 458L460 459L459 458M53 459L54 460L53 459M458 459L459 460L458 459M54 460L55 461L54 460M457 460L458 461L457 460M67 471L68 472L67 471M444 471L445 472L444 471M76 477L77 478L76 477M435 477L436 478L435 477M81 480L82 481L81 480M430 480L431 481L430 480M83 481L84 482L83 481M428 481L429 482L428 481M85 482L86 483L85 482M89 484L90 485L89 484M422 484L423 485L422 484M96 487L97 488L96 487M415 487L416 488L415 487M121 494L122 495L121 494M390 494L391 495L390 494z"/>
</svg>
