<?xml version="1.0" encoding="UTF-8"?>
<!DOCTYPE svg PUBLIC "-//W3C//DTD SVG 1.1//EN" "http://www.w3.org/Graphics/SVG/1.1/DTD/svg11.dtd">
<svg xmlns="http://www.w3.org/2000/svg" version="1.1" width="400px" height="370px" style="shape-rendering:geometricPrecision; text-rendering:geometricPrecision; image-rendering:optimizeQuality; fill-rule:evenodd; clip-rule:evenodd" xmlns:xlink="http://www.w3.org/1999/xlink">
<g><path style="opacity:1" fill="#fefffe" d="M -0.5,-0.5 C 132.833,-0.5 266.167,-0.5 399.5,-0.5C 399.5,122.833 399.5,246.167 399.5,369.5C 266.167,369.5 132.833,369.5 -0.5,369.5C -0.5,246.167 -0.5,122.833 -0.5,-0.5 Z"/></g>
<g><path style="opacity:1" fill="#e5e5e5" d="M 329.5,138.5 C 328.432,139.434 327.099,139.768 325.5,139.5C 325.607,141.903 324.607,143.736 322.5,145C 323.328,145.915 324.328,146.581 325.5,147C 321.946,151.888 317.779,156.054 313,159.5C 312.749,161.433 312.249,163.266 311.5,165C 311.833,165.333 312.167,165.667 312.5,166C 306.677,168.155 303.51,172.322 303,178.5C 301.316,180.351 299.483,182.018 297.5,183.5C 296.167,182.5 294.833,181.5 293.5,180.5C 292.186,181.313 291.019,182.313 290,183.5C 289.34,181.676 288.173,180.343 286.5,179.5C 286.106,177.29 284.773,175.957 282.5,175.5C 281.368,174.646 280.035,174.646 278.5,175.5C 277.614,174.224 276.614,174.224 275.5,175.5C 274.235,178.796 273.068,182.129 272,185.5C 271.691,184.234 271.191,183.067 270.5,182C 268.3,182.584 266.133,182.418 264,181.5C 262.98,182.891 262.147,184.391 261.5,186C 259.773,185.474 258.106,185.641 256.5,186.5C 254.696,186.983 253.029,186.316 251.5,184.5C 253.27,181.807 253.937,178.807 253.5,175.5C 252.448,175.649 251.448,175.483 250.5,175C 248.525,173.351 246.858,171.518 245.5,169.5C 244.512,164.445 243.179,164.445 241.5,169.5C 240.185,167.401 238.518,167.067 236.5,168.5C 234.526,168.707 232.526,168.04 230.5,166.5C 231.7,163.031 231.7,159.698 230.5,156.5C 230.081,159.026 229.914,161.359 230,163.5C 227.369,165.124 224.536,166.291 221.5,167C 219.081,168.509 218.081,170.675 218.5,173.5C 214.197,174.693 210.03,176.026 206,177.5C 203.775,177.435 201.608,177.102 199.5,176.5C 198.702,176.957 198.369,177.624 198.5,178.5C 196.403,178.003 194.57,177.67 193,177.5C 192.184,178.823 191.017,179.489 189.5,179.5C 188.687,178.347 187.687,178.347 186.5,179.5C 185.818,178.757 185.151,178.091 184.5,177.5C 184.649,176.448 184.483,175.448 184,174.5C 182.333,173.5 180.667,172.5 179,171.5C 178.632,167.314 176.799,163.98 173.5,161.5C 173.853,159.365 173.02,158.032 171,157.5C 168.953,158.609 166.787,159.276 164.5,159.5C 164.028,156.185 162.195,153.851 159,152.5C 158.444,150.115 158.61,147.782 159.5,145.5C 161.434,143.021 162.101,140.354 161.5,137.5C 162.822,137.33 163.989,137.663 165,138.5C 166.397,136.93 167.897,135.596 169.5,134.5C 171.048,134.179 171.715,133.179 171.5,131.5C 173.5,131.5 174.5,130.5 174.5,128.5C 177.075,126.034 177.742,123.534 176.5,121C 177.293,119.915 177.96,118.748 178.5,117.5C 177.024,116.12 176.024,114.453 175.5,112.5C 177.606,111.103 179.273,109.27 180.5,107C 179.91,105.491 179.244,103.991 178.5,102.5C 178.167,102.667 177.833,102.833 177.5,103C 179.288,106.406 178.455,108.906 175,110.5C 174.28,112.112 174.446,113.612 175.5,115C 174.906,115.464 174.239,115.631 173.5,115.5C 173.396,113.027 172.396,112.361 170.5,113.5C 166.969,112.315 164.969,109.981 164.5,106.5C 161.458,104.98 158.792,105.647 156.5,108.5C 154.521,107.037 152.854,105.371 151.5,103.5C 151.44,102.957 151.107,102.624 150.5,102.5C 145.746,104.651 140.746,105.651 135.5,105.5C 134.828,104.733 133.995,104.066 133,103.5C 130.27,103.845 127.437,104.011 124.5,104C 123.944,104.383 123.611,104.883 123.5,105.5C 122.041,105.567 120.708,105.234 119.5,104.5C 119.67,103.178 119.337,102.011 118.5,101C 123.559,100.706 123.726,99.5391 119,97.5C 118.823,91.3317 118.156,85.3317 117,79.5C 113.807,76.4661 111.64,72.7994 110.5,68.5C 111.874,66.0327 111.207,64.1994 108.5,63C 111.345,63.049 114.178,63.549 117,64.5C 119.849,62.9361 122.682,62.6028 125.5,63.5C 125.703,65.3904 125.037,66.8904 123.5,68C 125.371,70.37 127.038,72.87 128.5,75.5C 129.548,74.6171 130.715,73.9504 132,73.5C 139.448,75.2654 146.948,76.4321 154.5,77C 156.772,76.0589 158.772,74.7255 160.5,73C 163.043,72.8603 165.377,72.1937 167.5,71C 164.538,71.6923 161.538,71.5256 158.5,70.5C 158.713,67.525 159.713,64.8584 161.5,62.5C 165.443,60.6125 169.277,58.6125 173,56.5C 173.333,56.8333 173.667,57.1667 174,57.5C 176.737,56.4396 179.57,55.6063 182.5,55C 185.438,53.1922 188.438,51.6922 191.5,50.5C 191.491,48.6916 191.991,47.0249 193,45.5C 194.264,45.3601 195.431,45.3601 196.5,45.5C 195.5,44.1667 194.5,42.8333 193.5,41.5C 193.977,40.5224 194.643,39.6891 195.5,39C 194.858,33.6187 194.525,28.1187 194.5,22.5C 195.981,21.5197 197.315,20.353 198.5,19C 204.506,17.4986 210.506,15.9986 216.5,14.5C 217.969,17.2979 218.802,20.2979 219,23.5C 221.498,25.1537 223.998,26.8203 226.5,28.5C 227.646,27.8551 228.646,27.0217 229.5,26C 230.5,25.3333 231.5,25.3333 232.5,26C 234.189,28.5575 235.356,31.3908 236,34.5C 238.405,35.2744 240.905,35.7744 243.5,36C 244.167,38 244.833,40 245.5,42C 247.938,40.6156 250.604,40.1156 253.5,40.5C 254.981,41.4803 256.315,42.647 257.5,44C 257.005,46.6624 256.672,49.3291 256.5,52C 259.882,57.5065 258.882,62.0065 253.5,65.5C 254.362,68.146 254.195,70.8127 253,73.5C 252.586,73.0426 252.086,72.7093 251.5,72.5C 249.711,73.8772 247.711,74.8772 245.5,75.5C 244.24,77.3529 244.24,79.1862 245.5,81C 243.996,82.3369 242.996,84.0036 242.5,86C 243.167,86.3333 243.833,86.6667 244.5,87C 241.85,90.2073 242.016,90.7073 245,88.5C 245.18,86.5116 245.014,84.5116 244.5,82.5C 245.675,82.719 246.675,82.3857 247.5,81.5C 245.667,80.0316 245.334,78.3649 246.5,76.5C 248.962,74.9342 251.462,74.6008 254,75.5C 255.153,72.2889 255.82,68.9555 256,65.5C 259.302,62.6009 260.469,59.1009 259.5,55C 261.235,54.3486 262.902,54.5153 264.5,55.5C 265.941,54.696 267.441,54.0294 269,53.5C 270.59,51.5424 272.09,49.5424 273.5,47.5C 272.485,51.4688 272.485,55.8021 273.5,60.5C 277.426,60.0466 280.592,61.3799 283,64.5C 283.333,64.1667 283.667,63.8333 284,63.5C 284.483,64.448 284.649,65.448 284.5,66.5C 287.5,66.1667 288.833,67.5 288.5,70.5C 290.896,69.7034 293.229,69.37 295.5,69.5C 298.228,70.0183 300.728,71.0183 303,72.5C 305.647,69.8443 308.314,69.8443 311,72.5C 311.333,72.1667 311.667,71.8333 312,71.5C 314.856,74.6981 317.356,78.1981 319.5,82C 321.479,82.6836 323.146,82.1836 324.5,80.5C 325.852,81.5175 326.852,82.8508 327.5,84.5C 329.11,83.4478 330.777,83.4478 332.5,84.5C 334.055,84.278 335.389,83.6113 336.5,82.5C 340.17,86.0047 344.337,87.3381 349,86.5C 350.918,87.5418 352.751,88.7085 354.5,90C 351.697,93.4755 348.863,96.9755 346,100.5C 344.608,106.75 342.608,112.75 340,118.5C 339.24,124.795 338.906,131.128 339,137.5C 337.59,139.884 335.59,141.55 333,142.5C 332.051,140.907 330.885,139.574 329.5,138.5 Z"/></g>
<g><path style="opacity:1" fill="#fefffe" d="M 198.5,71.5 C 196.496,67.4931 196.496,63.6598 198.5,60C 197.87,58.108 196.87,56.4413 195.5,55C 195.833,54.8333 196.167,54.6667 196.5,54.5C 198.146,55.9022 199.146,57.7356 199.5,60C 199.601,61.9277 199.267,63.9277 198.5,66C 198.439,67.7106 199.106,69.044 200.5,70C 199.956,70.7172 199.289,71.2172 198.5,71.5 Z"/></g>
<g><path style="opacity:1" fill="#fefffe" d="M 198.5,71.5 C 198.961,73.5504 199.628,75.5504 200.5,77.5C 200.023,78.4776 199.357,79.3109 198.5,80C 201.23,80.7284 203.897,80.5617 206.5,79.5C 209.628,80.7749 212.628,81.7749 215.5,82.5C 209.411,81.4293 203.411,81.2627 197.5,82C 196.624,84.3757 194.958,85.8757 192.5,86.5C 193.246,87.7362 193.579,89.0695 193.5,90.5C 192.778,91.5511 191.778,92.2178 190.5,92.5C 191.09,90.5429 191.09,88.3763 190.5,86C 191.891,84.98 193.391,84.1466 195,83.5C 195.981,80.8802 197.147,78.3802 198.5,76C 197.392,74.3227 197.392,72.8227 198.5,71.5 Z"/></g>
<g><path style="opacity:1" fill="#fefffe" d="M 215.5,82.5 C 217.937,82.7563 220.271,83.4229 222.5,84.5C 225.25,84.4413 228.084,83.7747 231,82.5C 233.179,84.3482 235.013,86.5148 236.5,89C 237.9,90.4381 239.567,91.2714 241.5,91.5C 240.84,95.5135 240.84,98.8468 241.5,101.5C 239.171,99.0204 238.505,96.187 239.5,93C 235.819,91.1631 233.485,88.3298 232.5,84.5C 227.838,85.4146 223.338,85.748 219,85.5C 217.482,84.8366 216.315,83.8366 215.5,82.5 Z"/></g>
<g><path style="opacity:1" fill="#fefffe" d="M 193.5,90.5 C 195.265,93.1226 195.932,96.1226 195.5,99.5C 194.087,96.7814 193.42,93.7814 193.5,90.5 Z"/></g>
<g><path style="opacity:1" fill="#fefffe" d="M 190.5,92.5 C 189.952,93.6885 189.619,94.8552 189.5,96C 186.854,96.4974 184.187,96.6641 181.5,96.5C 181.811,95.5222 182.478,94.8555 183.5,94.5C 185.071,95.3094 186.738,95.6427 188.5,95.5C 188.285,93.8212 188.952,92.8212 190.5,92.5 Z"/></g>
<g><path style="opacity:1" fill="#fefffe" d="M 181.5,96.5 C 180.201,98.0986 178.535,98.5986 176.5,98C 177.905,96.7308 179.571,96.2308 181.5,96.5 Z"/></g>
<g><path style="opacity:1" fill="#fefffe" d="M 195.5,99.5 C 197.19,99.8564 198.19,100.856 198.5,102.5C 196.81,102.144 195.81,101.144 195.5,99.5 Z"/></g>
<g><path style="opacity:1" fill="#fefffe" d="M 241.5,101.5 C 240.986,103.366 240.32,105.2 239.5,107C 241.139,108.641 242.473,110.474 243.5,112.5C 242.027,111.26 240.36,110.26 238.5,109.5C 235.916,110.393 233.249,110.726 230.5,110.5C 230.79,114.554 230.123,115.054 228.5,112C 229.595,110.325 231.095,109.158 233,108.5C 234.707,109.138 236.54,109.138 238.5,108.5C 237.908,105.369 238.908,103.036 241.5,101.5 Z"/></g>
<g><path style="opacity:1" fill="#fefffe" d="M 151.5,103.5 C 149.583,105.57 147.416,106.237 145,105.5C 143.441,106.029 141.941,106.696 140.5,107.5C 139.5,106.167 138.5,106.167 137.5,107.5C 136.478,107.145 135.811,106.478 135.5,105.5C 140.746,105.651 145.746,104.651 150.5,102.5C 151.107,102.624 151.44,102.957 151.5,103.5 Z"/></g>
<g><path style="opacity:1" fill="#fefffe" d="M 174.5,128.5 C 175.297,126.249 175.297,123.749 174.5,121C 177.265,118.599 176.931,116.766 173.5,115.5C 174.239,115.631 174.906,115.464 175.5,115C 174.446,113.612 174.28,112.112 175,110.5C 178.455,108.906 179.288,106.406 177.5,103C 177.833,102.833 178.167,102.667 178.5,102.5C 179.244,103.991 179.91,105.491 180.5,107C 179.273,109.27 177.606,111.103 175.5,112.5C 176.024,114.453 177.024,116.12 178.5,117.5C 177.96,118.748 177.293,119.915 176.5,121C 177.742,123.534 177.075,126.034 174.5,128.5 Z"/></g>
<g><path style="opacity:1" fill="#fefffe" d="M 198.5,102.5 C 199.674,103.514 200.34,104.847 200.5,106.5C 198.896,105.713 198.229,104.38 198.5,102.5 Z"/></g>
<g><path style="opacity:1" fill="#fefffe" d="M 151.5,103.5 C 152.854,105.371 154.521,107.037 156.5,108.5C 158.792,105.647 161.458,104.98 164.5,106.5C 161.459,106.551 158.792,107.551 156.5,109.5C 153.467,108.518 151.8,106.518 151.5,103.5 Z"/></g>
<g><path style="opacity:1" fill="#fefffe" d="M 164.5,106.5 C 164.969,109.981 166.969,112.315 170.5,113.5C 172.396,112.361 173.396,113.027 173.5,115.5C 170.579,114.935 167.912,113.768 165.5,112C 164.594,110.301 164.261,108.467 164.5,106.5 Z"/></g>
<g><path style="opacity:1" fill="#fefffe" d="M 200.5,106.5 C 203.91,106.384 205.244,108.05 204.5,111.5C 206.696,111.41 208.863,111.077 211,110.5C 213.352,110.414 214.852,111.414 215.5,113.5C 212.073,111.328 208.739,111.328 205.5,113.5C 204.26,110.817 202.593,108.483 200.5,106.5 Z"/></g>
<g><path style="opacity:1" fill="#fefffe" d="M 261.5,111.5 C 262.713,112.497 262.546,113.497 261,114.5C 260.53,113.423 260.697,112.423 261.5,111.5 Z"/></g>
<g><path style="opacity:1" fill="#fefffe" d="M 243.5,112.5 C 244.434,113.568 244.768,114.901 244.5,116.5C 243.761,116.631 243.094,116.464 242.5,116C 243.337,114.989 243.67,113.822 243.5,112.5 Z"/></g>
<g><path style="opacity:1" fill="#fefffe" d="M 215.5,113.5 C 217.176,114.183 217.843,115.517 217.5,117.5C 221.136,117.406 224.636,116.739 228,115.5C 228.464,116.094 228.631,116.761 228.5,117.5C 224.164,118.634 219.831,118.634 215.5,117.5C 216.807,116.135 216.807,114.802 215.5,113.5 Z"/></g>
<g><path style="opacity:1" fill="#fefffe" d="M 244.5,116.5 C 247.833,116.5 249.5,118.167 249.5,121.5C 248.07,119.614 246.403,117.947 244.5,116.5 Z"/></g>
<g><path style="opacity:1" fill="#fefffe" d="M 228.5,117.5 C 231.626,118.806 232.793,121.14 232,124.5C 231.041,122.047 229.874,119.714 228.5,117.5 Z"/></g>
<g><path style="opacity:1" fill="#fefffe" d="M 249.5,121.5 C 250.607,122.992 252.107,123.992 254,124.5C 260.139,123.943 266.306,123.11 272.5,122C 274.464,123.451 275.797,125.284 276.5,127.5C 274.364,125.566 272.03,123.899 269.5,122.5C 263.393,125.328 257.06,125.995 250.5,124.5C 249.873,123.583 249.539,122.583 249.5,121.5 Z"/></g>
<g><path style="opacity:1" fill="#fefffe" d="M 303.5,122.5 C 303.735,121.903 304.235,121.57 305,121.5C 306.323,124.058 308.157,124.725 310.5,123.5C 312.266,124.091 313.933,124.924 315.5,126C 315,126.5 314.5,127 314,127.5C 312.569,124.772 310.569,124.105 308,125.5C 306.493,124.445 304.993,123.445 303.5,122.5 Z"/></g>
<g><path style="opacity:1" fill="#e4e5e4" d="M 15.5,122.5 C 18.9103,122.384 20.2436,124.05 19.5,127.5C 20.9305,127.421 22.2638,127.754 23.5,128.5C 24.8333,129.167 24.8333,129.833 23.5,130.5C 20.5386,132.002 17.5386,132.336 14.5,131.5C 15.5237,135.399 14.1903,138.399 10.5,140.5C 9.52242,140.023 8.68909,139.357 8,138.5C 6.89443,134.878 6.5611,131.211 7,127.5C 7.33333,127.167 7.66667,126.833 8,126.5C 10.9258,129.625 13.7592,129.792 16.5,127C 14.4523,125.774 14.119,124.274 15.5,122.5 Z"/></g>
<g><path style="opacity:1" fill="#fefffe" d="M 279.5,134.5 C 281.806,133.215 283.639,133.882 285,136.5C 287.162,133.672 289.829,132.672 293,133.5C 294.617,132.464 294.784,131.297 293.5,130C 295.833,128.333 297.833,126.333 299.5,124C 300.5,123.333 301.5,123.333 302.5,124C 298.658,126.497 295.991,129.83 294.5,134C 290.91,133.913 287.91,135.08 285.5,137.5C 283.437,136.488 281.437,135.488 279.5,134.5 Z"/></g>
<g><path style="opacity:1" fill="#fefffe" d="M 228.5,130.5 C 228.215,128.712 228.548,127.045 229.5,125.5C 229.354,126.492 229.687,127.658 230.5,129C 230.164,130.03 229.497,130.53 228.5,130.5 Z"/></g>
<g><path style="opacity:1" fill="#fefffe" d="M 321.5,128.5 C 320.244,128.539 319.244,128.039 318.5,127C 319.998,126.415 320.998,126.915 321.5,128.5 Z"/></g>
<g><path style="opacity:1" fill="#fefffe" d="M 276.5,127.5 C 278.673,128.166 279.007,129.333 277.5,131C 278.429,132.077 279.096,133.244 279.5,134.5C 278.5,134.5 277.5,134.5 276.5,134.5C 275.454,132.118 275.454,129.785 276.5,127.5 Z"/></g>
<g><path style="opacity:1" fill="#fefffe" d="M 174.5,128.5 C 174.5,130.5 173.5,131.5 171.5,131.5C 172.167,130.167 173.167,129.167 174.5,128.5 Z"/></g>
<g><path style="opacity:1" fill="#fefffe" d="M 321.5,128.5 C 323.426,129.242 325.259,130.242 327,131.5C 327.137,134.005 327.97,136.338 329.5,138.5C 327.228,137.277 326.061,135.277 326,132.5C 324.008,131.672 322.508,130.339 321.5,128.5 Z"/></g>
<g><path style="opacity:1" fill="#fefffe" d="M 228.5,130.5 C 227.449,131.222 226.782,132.222 226.5,133.5C 224.133,131.46 224.8,130.46 228.5,130.5 Z"/></g>
<g><path style="opacity:1" fill="#fefffe" d="M 171.5,131.5 C 171.715,133.179 171.048,134.179 169.5,134.5C 169.427,132.973 170.094,131.973 171.5,131.5 Z"/></g>
<g><path style="opacity:1" fill="#fefffe" d="M 226.5,133.5 C 227.88,133.962 228.547,134.962 228.5,136.5C 227.775,137.867 227.108,139.2 226.5,140.5C 224.014,139.05 224.347,137.884 227.5,137C 226.663,135.989 226.33,134.822 226.5,133.5 Z"/></g>
<g><path style="opacity:1" fill="#fefffe" d="M 169.5,134.5 C 167.897,135.596 166.397,136.93 165,138.5C 163.989,137.663 162.822,137.33 161.5,137.5C 161.389,135.352 162.056,135.019 163.5,136.5C 164.192,135.975 164.692,135.308 165,134.5C 166.299,134.966 167.799,134.966 169.5,134.5 Z"/></g>
<g><path style="opacity:1" fill="#fefffe" d="M 161.5,137.5 C 162.101,140.354 161.434,143.021 159.5,145.5C 159.565,142.572 160.232,139.905 161.5,137.5 Z"/></g>
<g><path style="opacity:1" fill="#fefffe" d="M 226.5,140.5 C 227.215,142.834 227.548,145.167 227.5,147.5C 226.503,147.53 225.836,147.03 225.5,146C 226.233,144.234 226.567,142.401 226.5,140.5 Z"/></g>
<g><path style="opacity:1" fill="#fefffe" d="M 159.5,145.5 C 158.61,147.782 158.444,150.115 159,152.5C 162.195,153.851 164.028,156.185 164.5,159.5C 166.787,159.276 168.953,158.609 171,157.5C 173.02,158.032 173.853,159.365 173.5,161.5C 172.739,160.609 171.739,159.942 170.5,159.5C 168.199,160.396 165.866,160.562 163.5,160C 161.735,157.189 159.568,154.689 157,152.5C 155.972,154.361 154.472,155.695 152.5,156.5C 151.378,155.37 150.044,154.703 148.5,154.5C 149.884,153.199 151.384,153.199 153,154.5C 156.148,152.032 158.315,149.032 159.5,145.5 Z"/></g>
<g><path style="opacity:1" fill="#fefffe" d="M 227.5,147.5 C 229.862,149.919 230.862,152.919 230.5,156.5C 229.054,153.746 228.054,150.746 227.5,147.5 Z"/></g>
<g><path style="opacity:1" fill="#e5e5e5" d="M 119.5,104.5 C 120.578,107.412 121.912,107.746 123.5,105.5C 125.391,104.464 127.224,104.464 129,105.5C 129.229,108.735 129.396,111.735 129.5,114.5C 131.164,111.855 131.497,108.855 130.5,105.5C 132.167,105.5 133.833,105.5 135.5,105.5C 135.811,106.478 136.478,107.145 137.5,107.5C 138.5,106.167 139.5,106.167 140.5,107.5C 141.941,106.696 143.441,106.029 145,105.5C 147.416,106.237 149.583,105.57 151.5,103.5C 151.8,106.518 153.467,108.518 156.5,109.5C 158.792,107.551 161.459,106.551 164.5,106.5C 164.261,108.467 164.594,110.301 165.5,112C 167.912,113.768 170.579,114.935 173.5,115.5C 176.931,116.766 177.265,118.599 174.5,121C 175.297,123.749 175.297,126.249 174.5,128.5C 173.167,129.167 172.167,130.167 171.5,131.5C 170.094,131.973 169.427,132.973 169.5,134.5C 167.799,134.966 166.299,134.966 165,134.5C 164.692,135.308 164.192,135.975 163.5,136.5C 162.056,135.019 161.389,135.352 161.5,137.5C 160.232,139.905 159.565,142.572 159.5,145.5C 158.315,149.032 156.148,152.032 153,154.5C 151.384,153.199 149.884,153.199 148.5,154.5C 150.044,154.703 151.378,155.37 152.5,156.5C 154.472,155.695 155.972,154.361 157,152.5C 159.568,154.689 161.735,157.189 163.5,160C 165.866,160.562 168.199,160.396 170.5,159.5C 171.739,159.942 172.739,160.609 173.5,161.5C 175.691,164.866 177.191,168.533 178,172.5C 180.727,173.594 182.893,175.26 184.5,177.5C 184.5,178.5 184.5,179.5 184.5,180.5C 186.292,180.634 187.958,180.301 189.5,179.5C 189.369,180.376 189.702,181.043 190.5,181.5C 193.092,180.083 195.759,179.083 198.5,178.5C 202.69,178.706 206.69,178.873 210.5,179C 212.766,181.391 214.933,183.891 217,186.5C 219.868,191.888 218.701,196.054 213.5,199C 214.516,200.677 215.516,202.343 216.5,204C 216.377,207.615 216.044,211.115 215.5,214.5C 214.749,213.427 213.749,213.26 212.5,214C 212.833,214.333 213.167,214.667 213.5,215C 211.859,216.129 210.859,217.629 210.5,219.5C 208.255,220.292 207.922,221.625 209.5,223.5C 207.194,224.375 206.527,225.708 207.5,227.5C 204.878,228.033 202.378,229.033 200,230.5C 196.958,225.954 193.458,225.454 189.5,229C 190.517,230.049 190.684,231.216 190,232.5C 188.273,235.944 186.106,238.944 183.5,241.5C 179.028,242.92 178.362,245.254 181.5,248.5C 179.72,249.142 178.053,250.308 176.5,252C 177.044,252.717 177.711,253.217 178.5,253.5C 176.807,256.184 175.14,258.851 173.5,261.5C 172.833,261.5 172.167,261.5 171.5,261.5C 169.545,260.07 167.879,260.403 166.5,262.5C 164.265,262.205 162.265,262.539 160.5,263.5C 158.54,264.138 156.707,264.138 155,263.5C 153.829,264.893 152.329,265.727 150.5,266C 150.263,268.288 150.263,270.788 150.5,273.5C 147.49,277.135 148.49,278.802 153.5,278.5C 154.535,280.205 154.535,281.872 153.5,283.5C 154.167,284.167 154.833,284.833 155.5,285.5C 155.062,286.506 154.396,286.506 153.5,285.5C 152.294,287.484 152.294,289.484 153.5,291.5C 151.384,293.4 150.051,295.733 149.5,298.5C 148.751,299.531 148.085,300.698 147.5,302C 147.833,302.333 148.167,302.667 148.5,303C 143.515,305.406 140.015,303.906 138,298.5C 132.921,299.071 128.421,297.404 124.5,293.5C 123.667,294.5 122.833,295.5 122,296.5C 122.73,293.979 123.23,291.313 123.5,288.5C 119.821,288.249 116.487,287.082 113.5,285C 116.573,284.261 118.74,282.428 120,279.5C 122.508,266.441 125.008,253.441 127.5,240.5C 128.895,241.815 129.895,241.481 130.5,239.5C 129.229,236.403 127.729,236.069 126,238.5C 126.063,233.858 126.396,229.191 127,224.5C 128.487,225.741 129.32,225.241 129.5,223C 129.156,221.635 128.489,220.468 127.5,219.5C 128.094,216.17 128.76,212.836 129.5,209.5C 131.53,211.607 133.697,213.607 136,215.5C 137.172,221.692 139.505,227.358 143,232.5C 143.273,230.899 143.773,229.399 144.5,228C 142.508,227.426 141.008,226.259 140,224.5C 139.507,220.032 138.507,215.698 137,211.5C 133.138,208.633 129.638,205.466 126.5,202C 128.863,198.953 130.197,195.787 130.5,192.5C 129.766,190.185 128.432,188.352 126.5,187C 128.293,185.22 129.96,183.387 131.5,181.5C 134.635,182.783 137.635,182.783 140.5,181.5C 138.248,180.667 136.081,180.667 134,181.5C 133.692,180.692 133.192,180.025 132.5,179.5C 130.249,180.695 127.915,181.695 125.5,182.5C 122.116,180.141 118.449,178.308 114.5,177C 112.194,172.24 109.027,168.073 105,164.5C 104.333,163.167 104.333,161.833 105,160.5C 108.664,156.643 107.83,154.143 102.5,153C 103.38,151.644 103.714,150.144 103.5,148.5C 106.482,148.104 109.149,148.771 111.5,150.5C 112.293,149.645 111.96,148.811 110.5,148C 106.577,145.691 103.077,146.191 100,149.5C 98.0748,148.12 96.2415,146.62 94.5,145C 96.7103,144.084 99.0436,142.584 101.5,140.5C 102.086,140.709 102.586,141.043 103,141.5C 105.26,139.377 106.093,137.044 105.5,134.5C 104.756,135.991 104.09,137.491 103.5,139C 99.9153,140.405 96.2486,140.239 92.5,138.5C 90.7244,140.447 88.7244,140.78 86.5,139.5C 87.6888,138.571 89.0222,138.238 90.5,138.5C 90.5,137.5 90.5,136.5 90.5,135.5C 88.1933,135.986 86.0266,135.986 84,135.5C 82.075,137.973 80.2417,137.973 78.5,135.5C 80.4613,134.152 80.6279,132.819 79,131.5C 78.5814,132.672 77.9147,133.672 77,134.5C 75.7052,133.159 75.2052,131.826 75.5,130.5C 74.2011,131.09 73.3678,132.09 73,133.5C 72.1667,132.667 71.3333,131.833 70.5,131C 66.2574,130.668 62.5907,129.168 59.5,126.5C 57.694,127.859 56.194,127.525 55,125.5C 53.887,126.76 53.7203,127.927 54.5,129C 53.2068,129.49 51.8734,129.657 50.5,129.5C 49.9741,124.142 46.9741,121.309 41.5,121C 44.7568,119.957 48.0901,119.457 51.5,119.5C 51.5972,115.308 49.7639,113.975 46,115.5C 45.6258,114.584 45.1258,113.75 44.5,113C 47.2308,112.929 49.7308,113.096 52,113.5C 52.5,113 53,112.5 53.5,112C 51.913,111.138 50.2464,110.471 48.5,110C 49.6721,109.581 50.6721,108.915 51.5,108C 48.8404,108.476 46.1737,109.31 43.5,110.5C 42.2679,109.855 40.9346,109.689 39.5,110C 39.5,108.333 39.5,106.667 39.5,105C 43.0682,103.878 46.5682,102.045 50,99.5C 50.5613,100.022 51.228,100.355 52,100.5C 55.5854,97.2459 58.9187,97.2459 62,100.5C 63.365,96.8278 65.365,96.4945 68,99.5C 69,97.5 70,95.5 71,93.5C 73.3333,93.8333 75.6667,94.1667 78,94.5C 78.6667,93.8333 79.3333,93.1667 80,92.5C 80,93.8333 80,95.1667 80,96.5C 81.0495,95.4829 82.2161,95.3162 83.5,96C 85.6713,99.2151 88.1713,102.048 91,104.5C 93.411,102.422 96.0777,100.755 99,99.5C 100.063,100.438 101.23,101.438 102.5,102.5C 103.5,101.833 104.5,101.167 105.5,100.5C 108.143,105.781 108.977,105.448 108,99.5C 109.813,98.3909 110.646,99.0576 110.5,101.5C 112.792,101.756 114.959,101.423 117,100.5C 117.608,102.066 118.442,103.4 119.5,104.5 Z"/></g>
<g><path style="opacity:1" fill="#fefffe" d="M 115.5,131.5 C 116.043,131.56 116.376,131.893 116.5,132.5C 114.235,133.647 111.902,133.814 109.5,133C 111.708,132.809 113.708,132.309 115.5,131.5 Z"/></g>
<g><path style="opacity:1" fill="#fefffe" d="M 128.5,123.5 C 128.414,125.677 127.747,127.677 126.5,129.5C 123.505,129.672 120.505,129.839 117.5,130C 118.931,129.535 120.097,128.701 121,127.5C 122.085,128.293 123.252,128.96 124.5,129.5C 125.857,127.435 127.19,125.435 128.5,123.5 Z"/></g>
<g><path style="opacity:1" fill="#fefffe" d="M 129.5,114.5 C 130.913,117.219 131.58,120.219 131.5,123.5C 130.5,123.5 129.5,123.5 128.5,123.5C 129.278,122.844 129.944,122.011 130.5,121C 129.713,118.901 129.38,116.734 129.5,114.5 Z"/></g>
<g><path style="opacity:1" fill="#fefffe" d="M 119.5,104.5 C 120.708,105.234 122.041,105.567 123.5,105.5C 121.912,107.746 120.578,107.412 119.5,104.5 Z"/></g>
<g><path style="opacity:1" fill="#fefffe" d="M 135.5,105.5 C 133.833,105.5 132.167,105.5 130.5,105.5C 131.497,108.855 131.164,111.855 129.5,114.5C 129.396,111.735 129.229,108.735 129,105.5C 127.224,104.464 125.391,104.464 123.5,105.5C 123.611,104.883 123.944,104.383 124.5,104C 127.437,104.011 130.27,103.845 133,103.5C 133.995,104.066 134.828,104.733 135.5,105.5 Z"/></g>
<g><path style="opacity:1" fill="#fefffe" d="M 148.5,154.5 C 146.432,155.375 144.432,156.541 142.5,158C 140.19,158.497 137.857,158.663 135.5,158.5C 138.12,158.009 140.454,156.842 142.5,155C 144.473,154.505 146.473,154.338 148.5,154.5 Z"/></g>
<g><path style="opacity:1" fill="#fefffe" d="M 230.5,156.5 C 231.7,159.698 231.7,163.031 230.5,166.5C 229.85,166.196 229.183,165.863 228.5,165.5C 226.446,167.194 224.112,168.361 221.5,169C 219.606,170.079 219.273,171.413 220.5,173C 218.641,174.981 216.308,175.981 213.5,176C 212.978,176.561 212.645,177.228 212.5,178C 215.175,181.023 217.509,184.356 219.5,188C 218.715,190.042 219.048,192.042 220.5,194C 219.174,196.158 217.507,197.992 215.5,199.5C 216.752,201.001 217.752,202.668 218.5,204.5C 218.023,205.478 217.357,206.311 216.5,207C 217.783,209.795 217.783,212.628 216.5,215.5C 215.893,215.376 215.56,215.043 215.5,214.5C 216.044,211.115 216.377,207.615 216.5,204C 215.516,202.343 214.516,200.677 213.5,199C 218.701,196.054 219.868,191.888 217,186.5C 214.933,183.891 212.766,181.391 210.5,179C 206.69,178.873 202.69,178.706 198.5,178.5C 198.369,177.624 198.702,176.957 199.5,176.5C 201.608,177.102 203.775,177.435 206,177.5C 210.03,176.026 214.197,174.693 218.5,173.5C 218.081,170.675 219.081,168.509 221.5,167C 224.536,166.291 227.369,165.124 230,163.5C 229.914,161.359 230.081,159.026 230.5,156.5 Z"/></g>
<g><path style="opacity:1" fill="#fefffe" d="M 135.5,158.5 C 136.815,163.666 136.148,163.833 133.5,159C 134.094,158.536 134.761,158.369 135.5,158.5 Z"/></g>
<g><path style="opacity:1" fill="#fefffe" d="M 173.5,161.5 C 176.799,163.98 178.632,167.314 179,171.5C 180.667,172.5 182.333,173.5 184,174.5C 184.483,175.448 184.649,176.448 184.5,177.5C 182.893,175.26 180.727,173.594 178,172.5C 177.191,168.533 175.691,164.866 173.5,161.5 Z"/></g>
<g><path style="opacity:1" fill="#fefffe" d="M 139.5,167.5 C 137.524,166.573 137.191,165.24 138.5,163.5C 139.429,164.689 139.762,166.022 139.5,167.5 Z"/></g>
<g><path style="opacity:1" fill="#e4e5e4" d="M 13.5,165.5 C 15.7567,165.962 17.7567,166.962 19.5,168.5C 20.8709,171.774 22.7042,174.774 25,177.5C 25.6667,178.5 25.6667,179.5 25,180.5C 22.1997,179.875 19.3664,179.208 16.5,178.5C 17.5,177.833 18.5,177.167 19.5,176.5C 17.7798,175.08 15.9465,173.747 14,172.5C 12.5846,170.157 12.4179,167.823 13.5,165.5 Z"/></g>
<g><path style="opacity:1" fill="#fefffe" d="M 245.5,169.5 C 244.298,168.595 242.964,168.595 241.5,169.5C 243.179,164.445 244.512,164.445 245.5,169.5 Z"/></g>
<g><path style="opacity:1" fill="#fefffe" d="M 230.5,166.5 C 232.526,168.04 234.526,168.707 236.5,168.5C 233.803,170.045 231.803,169.379 230.5,166.5 Z"/></g>
<g><path style="opacity:1" fill="#fefffe" d="M 139.5,167.5 C 140.678,171.476 142.011,175.476 143.5,179.5C 142.995,180.919 141.995,181.585 140.5,181.5C 141.706,180.12 141.373,178.953 139.5,178C 140.773,174.769 140.773,171.269 139.5,167.5 Z"/></g>
<g><path style="opacity:1" fill="#fefffe" d="M 241.5,169.5 C 240.434,170.692 239.601,170.359 239,168.5C 238.023,169.774 237.189,169.774 236.5,168.5C 238.518,167.067 240.185,167.401 241.5,169.5 Z"/></g>
<g><path style="opacity:1" fill="#fefffe" d="M 245.5,169.5 C 246.858,171.518 248.525,173.351 250.5,175C 251.448,175.483 252.448,175.649 253.5,175.5C 253.937,178.807 253.27,181.807 251.5,184.5C 253.029,186.316 254.696,186.983 256.5,186.5C 253.793,188.042 251.793,187.375 250.5,184.5C 252.049,182.098 252.716,179.432 252.5,176.5C 248.212,176.179 245.879,173.845 245.5,169.5 Z"/></g>
<g><path style="opacity:1" fill="#fefffe" d="M 278.5,175.5 C 277.624,175.369 276.957,175.702 276.5,176.5C 275.26,180.056 273.927,183.556 272.5,187C 272.167,187.167 271.833,187.333 271.5,187.5C 270.757,186.092 269.923,184.759 269,183.5C 267.57,183.694 266.07,183.694 264.5,183.5C 262.771,188.06 260.104,189.06 256.5,186.5C 258.106,185.641 259.773,185.474 261.5,186C 262.147,184.391 262.98,182.891 264,181.5C 266.133,182.418 268.3,182.584 270.5,182C 271.191,183.067 271.691,184.234 272,185.5C 273.068,182.129 274.235,178.796 275.5,175.5C 276.614,174.224 277.614,174.224 278.5,175.5 Z"/></g>
<g><path style="opacity:1" fill="#fefffe" d="M 282.5,175.5 C 281.039,176.686 279.705,176.686 278.5,175.5C 280.035,174.646 281.368,174.646 282.5,175.5 Z"/></g>
<g><path style="opacity:1" fill="#fefffe" d="M 282.5,175.5 C 284.773,175.957 286.106,177.29 286.5,179.5C 284.659,178.598 283.326,177.264 282.5,175.5 Z"/></g>
<g><path style="opacity:1" fill="#fefffe" d="M 184.5,177.5 C 185.151,178.091 185.818,178.757 186.5,179.5C 187.687,178.347 188.687,178.347 189.5,179.5C 187.958,180.301 186.292,180.634 184.5,180.5C 184.5,179.5 184.5,178.5 184.5,177.5 Z"/></g>
<g><path style="opacity:1" fill="#fefffe" d="M 198.5,178.5 C 195.759,179.083 193.092,180.083 190.5,181.5C 189.702,181.043 189.369,180.376 189.5,179.5C 191.017,179.489 192.184,178.823 193,177.5C 194.57,177.67 196.403,178.003 198.5,178.5 Z"/></g>
<g><path style="opacity:1" fill="#e4e5e4" d="M 93.5,249.5 C 94.3171,247.031 94.8171,244.365 95,241.5C 96.3431,240.786 97.6764,241.12 99,242.5C 99.9533,247.529 101.787,252.196 104.5,256.5C 97.4736,266.847 90.6403,277.514 84,288.5C 82.3333,289.5 81,290.833 80,292.5C 77.3335,300.011 74.5001,307.511 71.5,315C 70.042,316.752 68.7087,318.585 67.5,320.5C 63.6135,322.055 60.2802,324.388 57.5,327.5C 54.79,325.52 51.9566,325.186 49,326.5C 49.4639,323.922 48.1305,322.255 45,321.5C 39.7727,325.548 34.7727,325.215 30,320.5C 25.3725,323.136 21.0391,326.136 17,329.5C 12.726,328.564 8.39265,326.898 4,324.5C 3.64657,323.328 3.81324,322.162 4.5,321C 5.97823,319.522 7.47823,318.022 9,316.5C 12.0072,311.182 14.5072,305.682 16.5,300C 15.8333,297.667 15.1667,295.333 14.5,293C 16.8281,290.263 18.9948,287.43 21,284.5C 21.2868,282.109 21.7868,279.776 22.5,277.5C 19.7072,272.938 16.2072,268.938 12,265.5C 11.6397,263.579 10.8064,261.912 9.5,260.5C 9.83333,259.833 10.1667,259.167 10.5,258.5C 7.49243,253 6.49243,247.167 7.5,241C 6.02414,237.602 5.52414,234.102 6,230.5C 7.18174,226.968 8.84841,223.634 11,220.5C 17.2242,215.621 21.8908,209.621 25,202.5C 29.709,203.803 34.209,205.637 38.5,208C 43.1232,208.958 47.7899,209.625 52.5,210C 54.0304,212.197 55.8637,213.03 58,212.5C 65.3556,218.857 72.3556,225.524 79,232.5C 81.3001,230.052 82.6335,230.719 83,234.5C 83.414,234.043 83.914,233.709 84.5,233.5C 90.8517,236.842 93.8517,242.175 93.5,249.5 Z"/></g>
<g><path style="opacity:1" fill="#fefffe" d="M 215.5,214.5 C 214.194,216.473 212.527,218.139 210.5,219.5C 210.859,217.629 211.859,216.129 213.5,215C 213.167,214.667 212.833,214.333 212.5,214C 213.749,213.26 214.749,213.427 215.5,214.5 Z"/></g>
<g><path style="opacity:1" fill="#fefffe" d="M 210.5,219.5 C 210.768,221.099 210.434,222.432 209.5,223.5C 207.922,221.625 208.255,220.292 210.5,219.5 Z"/></g>
<g><path style="opacity:1" fill="#fefffe" d="M 209.5,223.5 C 209.267,225.062 208.6,226.395 207.5,227.5C 206.527,225.708 207.194,224.375 209.5,223.5 Z"/></g>
<g><path style="opacity:1" fill="#fefffe" d="M 315.5,224.5 C 313.637,227.115 311.637,227.115 309.5,224.5C 306.597,226.552 306.93,227.886 310.5,228.5C 311.309,230.071 311.643,231.738 311.5,233.5C 308.635,233.055 306.135,233.722 304,235.5C 303.667,235.167 303.333,234.833 303,234.5C 300.771,236.598 298.605,238.765 296.5,241C 295.552,241.483 294.552,241.649 293.5,241.5C 293.421,242.93 293.754,244.264 294.5,245.5C 292.833,246.833 291.167,248.167 289.5,249.5C 293.504,251.174 295.171,254.174 294.5,258.5C 292.309,259.291 290.309,259.291 288.5,258.5C 290.394,257.952 292.06,256.952 293.5,255.5C 291.389,253.415 289.389,251.248 287.5,249C 288.022,246.03 289.522,245.196 292,246.5C 291.464,244.553 291.798,242.553 293,240.5C 293.667,239.167 294.333,239.167 295,240.5C 298.499,234.873 303.666,231.873 310.5,231.5C 309.329,229.831 307.996,228.331 306.5,227C 306.735,226.127 307.069,225.293 307.5,224.5C 310.209,224.584 312.875,224.584 315.5,224.5 Z"/></g>
<g><path style="opacity:1" fill="#e5e5e5" d="M 315.5,224.5 C 318.055,226.897 320.055,229.73 321.5,233C 323.027,234.368 324.527,234.868 326,234.5C 326.667,235.833 326.667,237.167 326,238.5C 322.041,242.922 321.374,247.588 324,252.5C 327.782,255.398 331.782,258.065 336,260.5C 337.734,259.362 339.568,258.862 341.5,259C 342.517,260.049 342.684,261.216 342,262.5C 339.341,264.787 338.175,267.454 338.5,270.5C 332.495,273.849 327.495,278.182 323.5,283.5C 322.284,284.002 321.117,284.335 320,284.5C 319.215,286.286 318.049,287.786 316.5,289C 319,289.833 319.167,291 317,292.5C 316.667,292.167 316.333,291.833 316,291.5C 311.711,295.051 306.711,296.051 301,294.5C 300.05,295.022 299.216,295.689 298.5,296.5C 295.38,292.9 291.38,291.233 286.5,291.5C 286.5,289.833 286.5,288.167 286.5,286.5C 284.181,287.167 281.847,287.334 279.5,287C 278.748,286.329 278.414,285.496 278.5,284.5C 276.514,283.239 274.681,283.572 273,285.5C 271.355,285.307 269.521,285.14 267.5,285C 270.265,279.163 268.932,277.829 263.5,281C 264.654,281.914 264.487,282.747 263,283.5C 262.36,281.735 262.527,280.068 263.5,278.5C 265.796,278.196 266.129,277.196 264.5,275.5C 265.688,274.316 266.855,274.316 268,275.5C 269.728,274.648 269.895,273.648 268.5,272.5C 269.103,269.825 270.436,267.492 272.5,265.5C 275.167,264.167 275.167,262.833 272.5,261.5C 272.113,258.794 271.113,256.461 269.5,254.5C 269.821,252.952 270.821,252.285 272.5,252.5C 272.281,253.675 272.614,254.675 273.5,255.5C 274.107,255.376 274.44,255.043 274.5,254.5C 275.93,254.579 277.264,254.246 278.5,253.5C 281.702,255.511 285.036,257.178 288.5,258.5C 290.309,259.291 292.309,259.291 294.5,258.5C 295.171,254.174 293.504,251.174 289.5,249.5C 291.167,248.167 292.833,246.833 294.5,245.5C 293.754,244.264 293.421,242.93 293.5,241.5C 294.552,241.649 295.552,241.483 296.5,241C 298.605,238.765 300.771,236.598 303,234.5C 303.333,234.833 303.667,235.167 304,235.5C 306.135,233.722 308.635,233.055 311.5,233.5C 311.643,231.738 311.309,230.071 310.5,228.5C 306.93,227.886 306.597,226.552 309.5,224.5C 311.637,227.115 313.637,227.115 315.5,224.5 Z"/></g>
<g><path style="opacity:1" fill="#fefffe" d="M 207.5,227.5 C 207.954,229.259 207.954,231.259 207.5,233.5C 206.768,232.192 205.934,230.858 205,229.5C 203.43,230.358 201.763,231.025 200,231.5C 198,230.167 196,228.833 194,227.5C 193.228,227.645 192.561,227.978 192,228.5C 191.589,232.23 190.256,235.564 188,238.5C 186.385,239.386 184.885,240.386 183.5,241.5C 186.106,238.944 188.273,235.944 190,232.5C 190.684,231.216 190.517,230.049 189.5,229C 193.458,225.454 196.958,225.954 200,230.5C 202.378,229.033 204.878,228.033 207.5,227.5 Z"/></g>
<g><path style="opacity:1" fill="#e5e5e5" d="M 230.5,166.5 C 231.803,169.379 233.803,170.045 236.5,168.5C 237.189,169.774 238.023,169.774 239,168.5C 239.601,170.359 240.434,170.692 241.5,169.5C 242.964,168.595 244.298,168.595 245.5,169.5C 245.879,173.845 248.212,176.179 252.5,176.5C 252.716,179.432 252.049,182.098 250.5,184.5C 251.793,187.375 253.793,188.042 256.5,186.5C 260.104,189.06 262.771,188.06 264.5,183.5C 266.07,183.694 267.57,183.694 269,183.5C 269.923,184.759 270.757,186.092 271.5,187.5C 271.833,187.333 272.167,187.167 272.5,187C 273.927,183.556 275.26,180.056 276.5,176.5C 276.957,175.702 277.624,175.369 278.5,175.5C 279.705,176.686 281.039,176.686 282.5,175.5C 283.326,177.264 284.659,178.598 286.5,179.5C 287.449,184.266 289.782,185.266 293.5,182.5C 295.191,184.256 297.191,184.756 299.5,184C 301,182.5 302.5,181 304,179.5C 304.269,182.28 303.102,184.446 300.5,186C 303.613,189.606 306.946,188.939 310.5,184C 308.008,181.681 308.342,180.847 311.5,181.5C 314.15,179.506 317.15,178.506 320.5,178.5C 321.237,181.238 321.237,183.905 320.5,186.5C 321.651,188.325 322.318,190.325 322.5,192.5C 324.59,192.45 325.923,193.45 326.5,195.5C 323.971,196.737 321.971,198.571 320.5,201C 323.858,205.232 326.858,209.732 329.5,214.5C 328.985,216.225 328.318,217.892 327.5,219.5C 323.391,221.006 319.391,222.673 315.5,224.5C 312.875,224.584 310.209,224.584 307.5,224.5C 307.069,225.293 306.735,226.127 306.5,227C 307.996,228.331 309.329,229.831 310.5,231.5C 303.666,231.873 298.499,234.873 295,240.5C 294.333,239.167 293.667,239.167 293,240.5C 291.798,242.553 291.464,244.553 292,246.5C 289.522,245.196 288.022,246.03 287.5,249C 289.389,251.248 291.389,253.415 293.5,255.5C 292.06,256.952 290.394,257.952 288.5,258.5C 287.376,255.731 285.543,254.731 283,255.5C 282.517,254.552 282.351,253.552 282.5,252.5C 281.127,252.657 279.793,252.49 278.5,252C 279.668,250.129 279.168,248.629 277,247.5C 274.699,248.877 274.199,250.544 275.5,252.5C 275.167,253.167 274.833,253.833 274.5,254.5C 273.833,253.833 273.167,253.167 272.5,252.5C 268.792,251.963 265.125,251.463 261.5,251C 257.389,254.508 257.556,255.008 262,252.5C 264.621,252.023 267.121,252.69 269.5,254.5C 269.643,257.385 270.643,259.718 272.5,261.5C 272.5,262.833 272.5,264.167 272.5,265.5C 269.013,266.445 267.68,268.778 268.5,272.5C 266.545,272.799 265.211,273.799 264.5,275.5C 263.596,276.209 263.263,277.209 263.5,278.5C 261.459,278.854 259.626,278.854 258,278.5C 257.667,279.167 257.333,279.833 257,280.5C 256.632,279.09 255.799,278.09 254.5,277.5C 250.995,279.208 247.661,281.041 244.5,283C 242.606,284.101 241.939,285.434 242.5,287C 238.901,288.603 235.901,290.936 233.5,294C 232.216,294.684 231.049,294.517 230,293.5C 229.316,295.479 229.816,297.146 231.5,298.5C 229.615,299.197 229.282,300.197 230.5,301.5C 229.96,302.748 229.293,303.915 228.5,305C 232.167,306 232.5,307.667 229.5,310C 230.88,312.902 232.046,315.736 233,318.5C 231.534,316.675 229.701,316.175 227.5,317C 224.11,318.125 220.943,319.625 218,321.5C 214.363,316.932 210.53,316.599 206.5,320.5C 206.81,318.799 206.31,317.132 205,315.5C 203.419,317.575 201.585,317.575 199.5,315.5C 200.711,314.28 200.711,313.113 199.5,312C 190.936,309.083 182.436,305.916 174,302.5C 172.077,304.119 171.577,305.952 172.5,308C 167.132,307.863 161.798,308.03 156.5,308.5C 154.462,306.724 152.296,305.057 150,303.5C 149.506,301.866 149.34,300.199 149.5,298.5C 153.288,294.833 155.955,290.833 157.5,286.5C 156.716,283.43 155.383,280.763 153.5,278.5C 152.791,277.596 151.791,277.263 150.5,277.5C 150.5,276.167 150.5,274.833 150.5,273.5C 151.468,271.393 151.802,269.059 151.5,266.5C 152.822,266.67 153.989,266.337 155,265.5C 155.689,266.357 156.522,267.023 157.5,267.5C 158.389,265.993 159.389,264.66 160.5,263.5C 162.842,264.987 164.842,264.654 166.5,262.5C 168.216,262.371 169.883,262.038 171.5,261.5C 171.786,263.933 172.452,263.933 173.5,261.5C 174.82,260.058 176.486,259.392 178.5,259.5C 178.954,257.259 178.954,255.259 178.5,253.5C 179.105,251.974 180.271,250.974 182,250.5C 182.692,249.563 182.525,248.897 181.5,248.5C 181.4,245.892 182.067,243.558 183.5,241.5C 184.885,240.386 186.385,239.386 188,238.5C 190.256,235.564 191.589,232.23 192,228.5C 192.561,227.978 193.228,227.645 194,227.5C 196,228.833 198,230.167 200,231.5C 201.763,231.025 203.43,230.358 205,229.5C 205.934,230.858 206.768,232.192 207.5,233.5C 207.954,231.259 207.954,229.259 207.5,227.5C 208.6,226.395 209.267,225.062 209.5,223.5C 210.434,222.432 210.768,221.099 210.5,219.5C 212.527,218.139 214.194,216.473 215.5,214.5C 215.56,215.043 215.893,215.376 216.5,215.5C 217.783,212.628 217.783,209.795 216.5,207C 217.357,206.311 218.023,205.478 218.5,204.5C 217.752,202.668 216.752,201.001 215.5,199.5C 217.507,197.992 219.174,196.158 220.5,194C 219.048,192.042 218.715,190.042 219.5,188C 217.509,184.356 215.175,181.023 212.5,178C 212.645,177.228 212.978,176.561 213.5,176C 216.308,175.981 218.641,174.981 220.5,173C 219.273,171.413 219.606,170.079 221.5,169C 224.112,168.361 226.446,167.194 228.5,165.5C 229.183,165.863 229.85,166.196 230.5,166.5 Z"/></g>
<g><path style="opacity:1" fill="#fefffe" d="M 297.5,200.5 C 299.377,201.659 299.877,203.326 299,205.5C 298.392,203.846 297.892,202.179 297.5,200.5 Z"/></g>
<g><path style="opacity:1" fill="#fefffe" d="M 127.5,229.5 C 128.077,228.227 128.743,228.227 129.5,229.5C 129.03,230.463 128.363,230.463 127.5,229.5 Z"/></g>
<g><path style="opacity:1" fill="#fefffe" d="M 243.5,233.5 C 243.189,234.478 242.522,235.145 241.5,235.5C 239.937,234.055 238.604,232.389 237.5,230.5C 235.766,232.234 233.766,233.568 231.5,234.5C 231.006,236.026 230.339,237.359 229.5,238.5C 229.372,236.345 229.872,234.345 231,232.5C 233.571,231.599 235.904,230.266 238,228.5C 239.084,229.665 239.917,230.998 240.5,232.5C 241.325,233.386 242.325,233.719 243.5,233.5 Z"/></g>
<g><path style="opacity:1" fill="#fefffe" d="M 220.5,231.5 C 221.043,231.56 221.376,231.893 221.5,232.5C 218.27,237.513 217.937,237.179 220.5,231.5 Z"/></g>
<g><path style="opacity:1" fill="#fefffe" d="M 226.5,235.5 C 225.466,234.313 224.133,233.48 222.5,233C 223,232.5 223.5,232 224,231.5C 225.706,232.308 226.539,233.641 226.5,235.5 Z"/></g>
<g><path style="opacity:1" fill="#fefffe" d="M 243.5,233.5 C 243.369,232.761 243.536,232.094 244,231.5C 246.185,232.928 248.185,234.595 250,236.5C 251.933,241.98 254.433,247.147 257.5,252C 256.167,252.667 254.833,252.667 253.5,252C 253.957,251.586 254.291,251.086 254.5,250.5C 252.426,246.262 250.593,241.929 249,237.5C 247.568,235.561 245.735,234.228 243.5,233.5 Z"/></g>
<g><path style="opacity:1" fill="#fefffe" d="M 207.5,233.5 C 208.666,235.845 209.666,238.178 210.5,240.5C 209.752,242.735 208.919,242.402 208,239.5C 208.347,237.39 208.18,235.39 207.5,233.5 Z"/></g>
<g><path style="opacity:1" fill="#fefffe" d="M 226.5,235.5 C 227.1,236.9 228.1,237.9 229.5,238.5C 229.539,239.756 229.039,240.756 228,241.5C 226.872,239.655 226.372,237.655 226.5,235.5 Z"/></g>
<g><path style="opacity:1" fill="#fefffe" d="M 210.5,240.5 C 211.672,239.295 213.005,239.295 214.5,240.5C 215.478,240.023 216.311,239.357 217,238.5C 217.538,240.473 216.704,241.473 214.5,241.5C 213.151,241.154 211.817,240.821 210.5,240.5 Z"/></g>
<g><path style="opacity:1" fill="#fefffe" d="M 183.5,241.5 C 182.067,243.558 181.4,245.892 181.5,248.5C 178.362,245.254 179.028,242.92 183.5,241.5 Z"/></g>
<g><path style="opacity:1" fill="#fefffe" d="M 127.5,244.5 C 128.289,244.783 128.956,245.283 129.5,246C 128.426,246.739 127.759,247.739 127.5,249C 128.452,250.3 128.452,251.467 127.5,252.5C 126.271,249.801 126.271,247.135 127.5,244.5 Z"/></g>
<g><path style="opacity:1" fill="#fefffe" d="M 309.5,245.5 C 310.773,246.077 310.773,246.743 309.5,247.5C 308.537,247.03 308.537,246.363 309.5,245.5 Z"/></g>
<g><path style="opacity:1" fill="#fefffe" d="M 288.5,258.5 C 285.036,257.178 281.702,255.511 278.5,253.5C 277.264,254.246 275.93,254.579 274.5,254.5C 274.833,253.833 275.167,253.167 275.5,252.5C 274.199,250.544 274.699,248.877 277,247.5C 279.168,248.629 279.668,250.129 278.5,252C 279.793,252.49 281.127,252.657 282.5,252.5C 282.351,253.552 282.517,254.552 283,255.5C 285.543,254.731 287.376,255.731 288.5,258.5 Z"/></g>
<g><path style="opacity:1" fill="#fefffe" d="M 181.5,248.5 C 182.525,248.897 182.692,249.563 182,250.5C 180.271,250.974 179.105,251.974 178.5,253.5C 177.711,253.217 177.044,252.717 176.5,252C 178.053,250.308 179.72,249.142 181.5,248.5 Z"/></g>
<g><path style="opacity:1" fill="#fefffe" d="M 93.5,249.5 C 93.2172,250.289 92.7172,250.956 92,251.5C 91.4719,250.184 91.9719,249.517 93.5,249.5 Z"/></g>
<g><path style="opacity:1" fill="#e4e5e4" d="M 275.5,252.5 C 275.73,250.017 276.397,249.517 277.5,251C 277.164,252.03 276.497,252.53 275.5,252.5 Z"/></g>
<g><path style="opacity:1" fill="#fefffe" d="M 272.5,252.5 C 270.821,252.285 269.821,252.952 269.5,254.5C 267.121,252.69 264.621,252.023 262,252.5C 257.556,255.008 257.389,254.508 261.5,251C 265.125,251.463 268.792,251.963 272.5,252.5 Z"/></g>
<g><path style="opacity:1" fill="#fefffe" d="M 272.5,252.5 C 273.167,253.167 273.833,253.833 274.5,254.5C 274.44,255.043 274.107,255.376 273.5,255.5C 272.614,254.675 272.281,253.675 272.5,252.5 Z"/></g>
<g><path style="opacity:1" fill="#fefffe" d="M 178.5,253.5 C 178.954,255.259 178.954,257.259 178.5,259.5C 176.486,259.392 174.82,260.058 173.5,261.5C 175.14,258.851 176.807,256.184 178.5,253.5 Z"/></g>
<g><path style="opacity:1" fill="#fefffe" d="M 269.5,254.5 C 271.113,256.461 272.113,258.794 272.5,261.5C 270.643,259.718 269.643,257.385 269.5,254.5 Z"/></g>
<g><path style="opacity:1" fill="#fefffe" d="M 171.5,261.5 C 169.883,262.038 168.216,262.371 166.5,262.5C 167.879,260.403 169.545,260.07 171.5,261.5 Z"/></g>
<g><path style="opacity:1" fill="#fefffe" d="M 171.5,261.5 C 172.167,261.5 172.833,261.5 173.5,261.5C 172.452,263.933 171.786,263.933 171.5,261.5 Z"/></g>
<g><path style="opacity:1" fill="#fefffe" d="M 272.5,261.5 C 275.167,262.833 275.167,264.167 272.5,265.5C 272.5,264.167 272.5,262.833 272.5,261.5 Z"/></g>
<g><path style="opacity:1" fill="#fefffe" d="M 160.5,263.5 C 162.265,262.539 164.265,262.205 166.5,262.5C 164.842,264.654 162.842,264.987 160.5,263.5 Z"/></g>
<g><path style="opacity:1" fill="#fefffe" d="M 160.5,263.5 C 159.389,264.66 158.389,265.993 157.5,267.5C 156.522,267.023 155.689,266.357 155,265.5C 153.989,266.337 152.822,266.67 151.5,266.5C 151.802,269.059 151.468,271.393 150.5,273.5C 150.263,270.788 150.263,268.288 150.5,266C 152.329,265.727 153.829,264.893 155,263.5C 156.707,264.138 158.54,264.138 160.5,263.5 Z"/></g>
<g><path style="opacity:1" fill="#fefffe" d="M 272.5,265.5 C 270.436,267.492 269.103,269.825 268.5,272.5C 267.68,268.778 269.013,266.445 272.5,265.5 Z"/></g>
<g><path style="opacity:1" fill="#fefffe" d="M 268.5,272.5 C 269.895,273.648 269.728,274.648 268,275.5C 266.855,274.316 265.688,274.316 264.5,275.5C 265.211,273.799 266.545,272.799 268.5,272.5 Z"/></g>
<g><path style="opacity:1" fill="#fefffe" d="M 150.5,273.5 C 150.5,274.833 150.5,276.167 150.5,277.5C 151.791,277.263 152.791,277.596 153.5,278.5C 148.49,278.802 147.49,277.135 150.5,273.5 Z"/></g>
<g><path style="opacity:1" fill="#fefffe" d="M 264.5,275.5 C 266.129,277.196 265.796,278.196 263.5,278.5C 263.263,277.209 263.596,276.209 264.5,275.5 Z"/></g>
<g><path style="opacity:1" fill="#fefffe" d="M 153.5,278.5 C 155.383,280.763 156.716,283.43 157.5,286.5C 155.955,290.833 153.288,294.833 149.5,298.5C 150.051,295.733 151.384,293.4 153.5,291.5C 152.294,289.484 152.294,287.484 153.5,285.5C 154.396,286.506 155.062,286.506 155.5,285.5C 154.833,284.833 154.167,284.167 153.5,283.5C 154.535,281.872 154.535,280.205 153.5,278.5 Z"/></g>
<g><path style="opacity:1" fill="#fefffe" d="M 278.5,284.5 C 279.706,283.12 279.373,281.953 277.5,281C 278,280.5 278.5,280 279,279.5C 280.171,280.893 281.671,281.727 283.5,282C 282.347,283.883 280.681,284.716 278.5,284.5 Z"/></g>
<g><path style="opacity:1" fill="#e4e5e4" d="M 384.5,298.5 C 385.117,298.611 385.617,298.944 386,299.5C 386.729,303.377 386.562,307.211 385.5,311C 386.598,313.46 387.598,315.96 388.5,318.5C 388.461,322.698 388.461,326.864 388.5,331C 386.981,332.218 385.814,333.718 385,335.5C 384.667,339.167 384.333,342.833 384,346.5C 381.266,347.362 381.099,348.195 383.5,349C 381.765,351.192 380.598,353.692 380,356.5C 378.934,353.437 376.767,351.937 373.5,352C 369.664,349.788 369.664,347.454 373.5,345C 371.579,344.64 369.912,343.806 368.5,342.5C 370.447,340.724 370.78,338.724 369.5,336.5C 367.983,337.911 366.649,337.744 365.5,336C 367.223,335.225 368.223,333.892 368.5,332C 366.811,330.642 365.478,328.975 364.5,327C 365.5,326.167 366.5,325.333 367.5,324.5C 366.833,323.5 366.167,322.5 365.5,321.5C 366.873,319.51 367.873,317.343 368.5,315C 371.912,313.541 374.912,311.541 377.5,309C 379.367,308.289 380.867,308.789 382,310.5C 382.333,310.167 382.667,309.833 383,309.5C 383.455,305.492 383.955,301.826 384.5,298.5 Z"/></g>
<g><path style="opacity:1" fill="#e4e5e4" d="M 318.5,327.5 C 324.177,327.412 327.677,330.078 329,335.5C 332.409,338.29 332.909,341.79 330.5,346C 320.846,347.683 314.512,344.016 311.5,335C 312.856,333.433 313.523,331.6 313.5,329.5C 315.553,329.598 317.22,328.931 318.5,327.5 Z"/></g>
<g><path style="opacity:1" fill="#e5e5e5" d="M 273.5,333.5 C 276.612,333.792 279.612,335.125 282.5,337.5C 281.011,337.533 279.678,338.033 278.5,339C 279.138,340.707 279.138,342.54 278.5,344.5C 274.611,344.357 273.611,342.524 275.5,339C 274.144,337.433 273.477,335.6 273.5,333.5 Z"/></g>
</svg>
